<svg width="28" height="28" viewBox="0 0 28 28" fill="none" xmlns="http://www.w3.org/2000/svg">
<rect width="28" height="28" rx="8" fill="#F07C37" fill-opacity="0.9"/>
<path d="M10.245 21.1532C10.1616 21.267 10.027 21.341 9.87501 21.341C9.72306 21.341 9.58838 21.267 9.50499 21.1532L6.80091 18.4491C6.62192 18.2701 6.62192 17.9799 6.80091 17.8009C6.9799 17.6219 7.27011 17.6219 7.4491 17.8009L9.41667 19.7685V7.12499C9.41667 6.87186 9.62187 6.66666 9.87501 6.66666C10.1281 6.66666 10.3333 6.87186 10.3333 7.12499V19.7685L12.3009 17.8009C12.4799 17.6219 12.7701 17.6219 12.9491 17.8009C13.1281 17.9799 13.1281 18.2701 12.9491 18.4491L10.245 21.1532Z" fill="white"/>
<path d="M18.6716 6.85448C18.755 6.74061 18.8897 6.66667 19.0417 6.66667C19.1936 6.66667 19.3283 6.74061 19.4117 6.85448L22.1158 9.55855C22.2947 9.73754 22.2947 10.0277 22.1158 10.2067C21.9368 10.3857 21.6466 10.3857 21.4676 10.2067L19.5 8.23916V20.8826C19.5 21.1358 19.2948 21.341 19.0417 21.341C18.7885 21.341 18.5833 21.1358 18.5833 20.8826V8.23916L16.6158 10.2067C16.4368 10.3857 16.1466 10.3857 15.9676 10.2067C15.7886 10.0277 15.7886 9.73754 15.9676 9.55855L18.6716 6.85448Z" fill="white"/>
</svg>
