<svg width="38" height="38" viewBox="0 0 38 38" fill="none" xmlns="http://www.w3.org/2000/svg">
<rect width="38" height="38" rx="8" fill="#F7F5F6"/>
<path d="M27 28V26C27 24.9391 26.5786 23.9217 25.8284 23.1716C25.0783 22.4214 24.0609 22 23 22H15C13.9391 22 12.9217 22.4214 12.1716 23.1716C11.4214 23.9217 11 24.9391 11 26V28" stroke="#3E3939" stroke-width="2" stroke-linecap="round" stroke-linejoin="round"/>
<path d="M19 18C21.2091 18 23 16.2091 23 14C23 11.7909 21.2091 10 19 10C16.7909 10 15 11.7909 15 14C15 16.2091 16.7909 18 19 18Z" stroke="#3E3939" stroke-width="2" stroke-linecap="round" stroke-linejoin="round"/>
</svg>
